<?xml version="1.0" encoding="UTF-8"?>
<svg id="Layer_1" data-name="Layer 1" xmlns="http://www.w3.org/2000/svg" xmlns:xlink="http://www.w3.org/1999/xlink" viewBox="0 0 1806.83 1128.88">
  <defs>
    <style>
      .cls-1 {
        stroke: url(#New_Gradient_Swatch_copy-4);
      }

      .cls-1, .cls-2, .cls-3, .cls-4 {
        fill: none;
        stroke-miterlimit: 10;
      }

      .cls-1, .cls-5 {
        opacity: .2;
      }

      .cls-2 {
        stroke: url(#New_Gradient_Swatch_copy);
      }

      .cls-3 {
        stroke: url(#New_Gradient_Swatch_copy-3);
      }

      .cls-4 {
        stroke: url(#New_Gradient_Swatch_copy-2);
      }
    </style>
    <linearGradient id="New_Gradient_Swatch_copy" data-name="New Gradient Swatch copy" x1="284.83" y1="872.25" x2="679.89" y2="872.25" gradientUnits="userSpaceOnUse">
      <stop offset="0" stop-color="#f6871f"/>
      <stop offset="1" stop-color="#fccd09"/>
    </linearGradient>
    <linearGradient id="New_Gradient_Swatch_copy-2" data-name="New Gradient Swatch copy" x1="821.29" y1="83.15" x2="1130.7" y2="83.15" xlink:href="#New_Gradient_Swatch_copy"/>
    <linearGradient id="New_Gradient_Swatch_copy-3" data-name="New Gradient Swatch copy" x1="0" y1="613.03" x2="1806.83" y2="613.03" xlink:href="#New_Gradient_Swatch_copy"/>
    <linearGradient id="New_Gradient_Swatch_copy-4" data-name="New Gradient Swatch copy" x1="615.76" y1="683.99" x2="1805.36" y2="683.99" xlink:href="#New_Gradient_Swatch_copy"/>
  </defs>
  <g class="cls-5">
    <g>
      <path class="cls-2" d="M679.06,1071.88c-1.52,1.71-9.43-.18-11.83-.69-88.5-18.63-166.25-65.77-219.13-134.78-56.82-74.14-64.93-166.77-129.97-236.67l-31.27-27.21c44.49,12.72,83.15,40.95,111.52,74.92,39.98,47.87,55.56,106.79,88.33,158.72,44.39,70.33,111.89,131.04,192.35,165.71Z"/>
      <path class="cls-4" d="M1130.17,165.26c-43.38-35.28-88.77-68.52-138.58-95.78-51.69-28.29-106.67-52.05-164.31-65.69-1.85-.44-6.52-.87-5.29-3.28,17.17.24,34.73.37,51.93,2.46,72.66,8.86,230.98,55.18,253.44,129.81,3.36,11.15,2.79,21.27,2.81,32.48Z"/>
      <path class="cls-3" d="M1278.5,175.17c-28.35-14.24-60.26-27.81-91.36-34.43,21.61,41.5,41.49,86.36,43.75,131.78-119.86-94.42-264.41-163.82-420.35-173.66-107.37-6.86-217.96,15.88-304.03,70.2,81.11,13.52,161.22,39.02,235.12,74.95,29.63,14.42,57.69,31.36,86.8,46.73-5.53,4.06-14.96-2.17-21.65-3.62-109.65-24.35-226.67-39.19-337.6-36.22-172.37,4.62-341.91,53.95-468.06,157.5,180.03,39.28,338.1,147.15,442.98,287.8,64.37,86.12,104.67,183.62,180.94,263.22,116.46,121.74,288.06,172.43,455.32,168.76,141.86-3.22,528.5-44.9,624.58-139.98-13.29,8.42-27.6,15.85-43.28,22.28-38.28,15.7-72.33,21.91-103.48,20.75-92.72-3-159.07-70.86-231.45-145.1-17.8-9.44-34.62-21.26-49.75-36.67-85.93-87.92-162.64-183.76-278.53-236.02l33.91,3.03-60.05-31.66,90.26,7.92c163.91,11.14,324.07-55.47,483.44-70.25,73.7-6.82,133.93,12.26,179,46.77,18.27,13.95,33.98,30.33,47.09,48.57,16.72,20.61,28.41,40.86,34.23,60.25-22.66-164.11-363.03-420.52-527.83-502.92ZM498.6,587.33c-49.92-20.57-81.78-66.55-121.13-99.25-45.79-38.06-110.44-69.93-171.37-73.2-4.76-.26-26.38,1.83-27.14.75-1.37-1.93,10.3-5.86,11.29-7.1,152.09-57.36,221.19,88.72,311.8,170.87l23.84,16.58c-8.68-3.34-18.8-5.15-27.29-8.65ZM1060.63,390.46l-52.72-59.54c-49.85-46.01-108.31-84.79-172.46-111.66-11.82-4.95-23.86-8.73-35.92-13.03-1.98-.71-6.51-.83-5.3-3.3,107.91,13.17,276.9,62.18,266.39,187.53Z"/>
    </g>
  </g>
  <path class="cls-1" d="M1052.33,607.3l90.26,7.92c163.91,11.14,324.07-55.47,483.44-70.25,73.7-6.83,133.93,12.26,179,46.77-141.93-126.01-429.47-254.23-621.81-296.29,76.95,80.27,128.41,164.43,90.05,213.19-76.52,48.18-124.89-97.25-234.25-55.12-124.64,48.02-270.71,72.27-421.66-21.39,189.35,296.63,324.14,212.36,387.04,308.41,10.38,15.92,6.72,37-8.17,48.72-31.01,24.49-65.02,19.3-100.5-1,151.53,304.88,525.76,307.33,742.46,265.45-92.72-3-159.07-70.86-231.45-145.1-1.95-1.96-3.97-4.05-5.92-6.01-91.92-94.07-175.48-195.44-288.44-263.65l-60.05-31.66Z"/>
</svg>