<?xml version="1.0" encoding="UTF-8"?>
<svg id="Layer_1" xmlns="http://www.w3.org/2000/svg" xmlns:xlink="http://www.w3.org/1999/xlink" version="1.1" viewBox="0 0 106.4 140.9">
  <!-- Generator: Adobe Illustrator 30.3.0, SVG Export Plug-In . SVG Version: 2.1.3 Build 182)  -->
  <defs>
    <style>
      .st0 {
        fill: none;
      }

      .st1 {
        fill: url(#linear-gradient2);
      }

      .st2 {
        fill: url(#linear-gradient1);
      }

      .st3 {
        fill: url(#linear-gradient9);
      }

      .st4 {
        fill: url(#linear-gradient3);
      }

      .st5 {
        fill: url(#linear-gradient6);
      }

      .st6 {
        fill: url(#linear-gradient8);
      }

      .st7 {
        fill: url(#linear-gradient7);
      }

      .st8 {
        fill: url(#linear-gradient5);
      }

      .st9 {
        fill: url(#linear-gradient4);
      }

      .st10 {
        fill: url(#linear-gradient13);
      }

      .st11 {
        fill: url(#linear-gradient12);
      }

      .st12 {
        fill: url(#linear-gradient11);
      }

      .st13 {
        fill: url(#linear-gradient10);
      }

      .st14 {
        fill: url(#linear-gradient14);
      }

      .st15 {
        fill: url(#linear-gradient);
      }

      .st16 {
        opacity: .7;
      }
    </style>
    <linearGradient id="linear-gradient" x1="21.2" y1="106.1" x2="36.9" y2="106.1" gradientTransform="translate(0 141.3) scale(1 -1)" gradientUnits="userSpaceOnUse">
      <stop offset="0" stop-color="#f38c21"/>
      <stop offset="1" stop-color="#fccd09"/>
    </linearGradient>
    <linearGradient id="linear-gradient1" x1="80.2" y1="92.5" x2="85.3" y2="92.5" gradientTransform="translate(0 141.3) scale(1 -1)" gradientUnits="userSpaceOnUse">
      <stop offset="0" stop-color="#f38c21"/>
      <stop offset="1" stop-color="#fccd09"/>
    </linearGradient>
    <linearGradient id="linear-gradient2" x1="23.2" y1="88.4" x2="82.7" y2="88.4" gradientTransform="translate(0 141.3) scale(1 -1)" gradientUnits="userSpaceOnUse">
      <stop offset="0" stop-color="#f38c21"/>
      <stop offset="1" stop-color="#fccd09"/>
    </linearGradient>
    <linearGradient id="linear-gradient3" x1="0" y1="30.9" x2="51.9" y2="30.9" gradientTransform="translate(0 141.3) scale(1 -1)" gradientUnits="userSpaceOnUse">
      <stop offset="0" stop-color="#bfbfbf"/>
      <stop offset="1" stop-color="#fff"/>
    </linearGradient>
    <linearGradient id="linear-gradient4" x1="55" y1="30.8" x2="106.4" y2="30.8" gradientTransform="translate(0 141.3) scale(1 -1)" gradientUnits="userSpaceOnUse">
      <stop offset="0" stop-color="#bfbfbf"/>
      <stop offset="1" stop-color="#fff"/>
    </linearGradient>
    <linearGradient id="linear-gradient5" x1="12.1" y1="43.4" x2="43.2" y2="43.4" gradientTransform="translate(0 141.3) scale(1 -1)" gradientUnits="userSpaceOnUse">
      <stop offset="0" stop-color="#bfbfbf"/>
      <stop offset="1" stop-color="#fff"/>
    </linearGradient>
    <linearGradient id="linear-gradient6" x1="63.5" y1="43.5" x2="94.3" y2="43.5" gradientTransform="translate(0 141.3) scale(1 -1)" gradientUnits="userSpaceOnUse">
      <stop offset="0" stop-color="#bfbfbf"/>
      <stop offset="1" stop-color="#fff"/>
    </linearGradient>
    <linearGradient id="linear-gradient7" x1="0" y1="75.6" x2="20.6" y2="75.6" gradientTransform="translate(0 141.3) scale(1 -1)" gradientUnits="userSpaceOnUse">
      <stop offset="0" stop-color="#bfbfbf"/>
      <stop offset="1" stop-color="#fff"/>
    </linearGradient>
    <linearGradient id="linear-gradient8" x1="86.1" y1="75.6" x2="106.4" y2="75.6" gradientTransform="translate(0 141.3) scale(1 -1)" gradientUnits="userSpaceOnUse">
      <stop offset="0" stop-color="#bfbfbf"/>
      <stop offset="1" stop-color="#fff"/>
    </linearGradient>
    <linearGradient id="linear-gradient9" x1="13.1" y1="74.9" x2="19.9" y2="74.9" gradientTransform="translate(0 141.3) scale(1 -1)" gradientUnits="userSpaceOnUse">
      <stop offset="0" stop-color="#bfbfbf"/>
      <stop offset="1" stop-color="#fff"/>
    </linearGradient>
    <linearGradient id="linear-gradient10" x1="86.8" y1="74.8" x2="93.6" y2="74.8" gradientTransform="translate(0 141.3) scale(1 -1)" gradientUnits="userSpaceOnUse">
      <stop offset="0" stop-color="#bfbfbf"/>
      <stop offset="1" stop-color="#fff"/>
    </linearGradient>
    <linearGradient id="linear-gradient11" x1="12.6" y1="67.7" x2="22.1" y2="67.7" gradientTransform="translate(0 141.3) scale(1 -1)" gradientUnits="userSpaceOnUse">
      <stop offset="0" stop-color="#bfbfbf"/>
      <stop offset="1" stop-color="#fff"/>
    </linearGradient>
    <linearGradient id="linear-gradient12" x1="84.6" y1="67.7" x2="94.1" y2="67.7" gradientTransform="translate(0 141.3) scale(1 -1)" gradientUnits="userSpaceOnUse">
      <stop offset="0" stop-color="#bfbfbf"/>
      <stop offset="1" stop-color="#fff"/>
    </linearGradient>
    <linearGradient id="linear-gradient13" x1="48.7" y1="35.9" x2="58" y2="35.9" gradientTransform="translate(0 141.3) scale(1 -1)" gradientUnits="userSpaceOnUse">
      <stop offset="0" stop-color="#bfbfbf"/>
      <stop offset="1" stop-color="#fff"/>
    </linearGradient>
    <linearGradient id="linear-gradient14" x1="76.1" y1="44.3" x2="33.7" y2="93.4" gradientTransform="translate(0 141.3) scale(1 -1)" gradientUnits="userSpaceOnUse">
      <stop offset="0" stop-color="#f38c21"/>
      <stop offset="1" stop-color="#fccd09"/>
    </linearGradient>
  </defs>
  <g>
    <path class="st15" d="M21.5,49.7c-.1,0-.2-.5-.2-.7-.5-5.3.7-10.5,3.7-14.7,3.1-4.5,8.2-6.6,10.9-11.5l1-2.2c0,2.7-.8,5.4-2.2,7.6-2,3.1-5,5-7.3,7.8-3.1,3.7-5.4,8.6-5.9,13.7h0Z"/>
    <path class="st2" d="M80.2,58.9c1.2-3,2.3-6.2,2.9-9.5.7-3.4,1-6.9.8-10.4,0-.1,0-.4,0-.3.3,1,.6,2,.8,3,.8,4.2,1,13.9-2.8,16.5-.6.4-1.1.5-1.8.7h0Z"/>
    <path class="st1" d="M82.6,61.7c-1.9,2-4.1,3.8-6.6,4.8,3.2-8.4,4.5-17.7,2.3-26.6-1.5-6.1-4.8-11.9-9.3-15.8.7,4.8.7,9.7,0,14.5-.3,1.9-.7,3.8-1.1,5.7-.3-.2-.1-.9-.2-1.3-.6-6.6-1.8-13.4-4-19.5-3.3-9.6-9.1-18.2-17.1-23.4,1,10.8-2.2,21.5-8.2,29.9-3.7,5.1-8.4,9.1-11.5,14.8-4.8,8.7-4.5,19.2-1.4,28.5,2.7,7.9,11.9,28.8,18.9,32.5-.7-.6-1.4-1.3-2-2-1.6-1.9-2.5-3.7-3-5.4-1.5-5.2,1.2-10.2,4-15.5.2-1.2.6-2.3,1.2-3.4,3.4-6.4,7.4-12.4,8.3-19.8l.4,2,.7-3.9,1.2,5.2c2.3,9.4,8.9,17.2,12.5,25.8,1.7,4,1.7,7.7.6,10.8-.5,1.3-1.1,2.4-1.9,3.5-.9,1.3-1.8,2.3-2.8,3,8.8-4.2,17.1-27.8,18.8-38.5.3-1.8.5-3.9.3-5.7h0ZM45.9,31.1l-.5,1.6c0-.5,0-1.1,0-1.7.3-3.2,2.3-5.8,3.4-8.5,1.3-3.2,2-7.4,1.1-10.9,0-.3-.6-1.4-.5-1.5,0-.1.5.5.6.5,5.9,7.5-1,14-4,20.5h0ZM66.4,59l2.4-4c1.7-3.6,2.8-7.6,3.2-11.6,0-.8,0-1.5,0-2.2,0-.1,0-.4,0-.4,1.2,6.3,1.4,16.6-5.8,18.2h0Z"/>
  </g>
  <g class="st16">
    <g>
      <g>
        <path class="st4" d="M10.1,80.1c7.4,10.7,12,23.3,21.1,32.7.3-.4-.5-1.1-.8-1.6-3.3-5.8-6.9-11.7-10-17.6-.3-.6-.9-1.4-.8-2.1l27.2,31.4c1.7,5.7,3.8,11.6,5.1,17.4,0,.4,0,.4-.3.3-2-.1-6.2-6.1-7.6-7.9-13.5-15.7-27.9-31.8-40.7-48-1.1-1.4-2.5-3-3.2-4.7h10.1Z"/>
        <path class="st9" d="M106.4,80.1c.3.2-3.5,5.2-3.9,5.7-8.8,11-18.3,21.5-27.4,32.2-5.5,6.5-11.2,14.5-17,20.6-.9,1-1.9,1.8-3.1,2.3,1.6-6,2.7-12.2,4.9-18l27.2-31.7-11.5,21.4c1.9-2.6,4.2-4.9,6.1-7.5,4.2-6.1,7.5-13.5,11.3-19.9,1-1.8,2.1-3.5,3.3-5.2h10.1Z"/>
        <polygon class="st8" points="22.9 80.1 43.2 115.7 12.1 80.1 22.9 80.1"/>
        <polygon class="st5" points="94.3 80.1 63.5 115.5 83.8 80.1 94.3 80.1"/>
        <path class="st7" d="M20.6,54.1c.1.1-.3,2-.5,2.3-.8,1.1-5.2,3-6.6,4.1-.2.2-.4.3-.4.5l-3,16.1H0c.5-1.5,1.4-2.9,2.2-4.2,2.9-4.8,6.3-11,9.5-15.4.9-1.2,3.2-3.4,4.8-3.4,0,0,4,0,4,0Z"/>
        <path class="st6" d="M106.4,77.2h-9.8c-.4-.3-.4-.8-.5-1.2-1.1-4.9-1.4-10.1-2.7-15l-7.1-4.5-.3-2.4h4.2c1.3,0,3.7,2.3,4.4,3.3,3.4,4.7,7.7,12,10.5,17.1.4.8.9,1.7,1.2,2.6Z"/>
        <polygon class="st3" points="13.1 73.5 15.1 62.3 19.9 59.2 19.8 67.1 13.1 73.5"/>
        <path class="st13" d="M93.6,73.5l-6.7-6.1c0-2.6.3-5.3-.1-8l4.8,3.1,2,11h0Z"/>
        <polygon class="st12" points="22.1 77.2 12.6 77.2 20 69.9 22.1 77.2"/>
        <polygon class="st11" points="94.1 77.2 84.6 77.2 86.3 69.9 94.1 77.2"/>
      </g>
      <path class="st10" d="M53.3,137.3l-4.6-18.6c1.7-14,2.6-28.2,4.2-42.2,0-.4.3-3,.6-3l4.5,44.6c-1.6,5.8-2.4,12.8-4.2,18.4,0,.3-.1.7-.5.7h0Z"/>
    </g>
  </g>
  <path class="st14" d="M54,57.5l1.2,5.2c2.3,9.4,8.9,17.2,12.5,25.8,1.7,4,1.7,7.7.6,10.8,4.5-10.2,6.6-28.5,5.6-40.1-3.1,5.7-6.9,10.1-10.3,8.8-4-3.4,3.2-8.7-1.1-14.1-4.9-6.1-8.9-13.9-6.3-24-13.2,15.9-6.1,21.9-10.4,27.1-.7.9-2,1-2.9.4-1.9-1.3-2.2-3.3-1.7-5.6-14.4,13.9-7.9,34.9-1.7,46.3-1.5-5.2,1.2-10.2,4-15.5,0-.1.2-.3.2-.4,3.6-6.8,7.8-13.3,9.6-20.8l.7-3.9h0Z"/>
  <line class="st0" x1="53.9" y1="57.5" x2="53.2" y2="61.4"/>
</svg>